<?xml version="1.0" encoding="UTF-8" standalone="no"?>
<!-- Created with Inkscape (http://www.inkscape.org/) -->

<svg
   xmlns:dc="http://purl.org/dc/elements/1.1/"
   xmlns:cc="http://creativecommons.org/ns#"
   xmlns:rdf="http://www.w3.org/1999/02/22-rdf-syntax-ns#"
   xmlns:svg="http://www.w3.org/2000/svg"
   xmlns="http://www.w3.org/2000/svg"
   xmlns:sodipodi="http://sodipodi.sourceforge.net/DTD/sodipodi-0.dtd"
   xmlns:inkscape="http://www.inkscape.org/namespaces/inkscape"
   width="10.49845mm"
   height="11.90625mm"
   viewBox="0 0 10.49845 11.90625"
   version="1.1"
   id="svg4549"
   inkscape:version="0.92.1 r15371"
   sodipodi:docname="css.svg">
  <defs
     id="defs4543" />
  <sodipodi:namedview
     id="base"
     pagecolor="#ffffff"
     bordercolor="#666666"
     borderopacity="1.0"
     inkscape:pageopacity="0.0"
     inkscape:pageshadow="2"
     inkscape:zoom="5.7500203"
     inkscape:cx="84.182521"
     inkscape:cy="18.686045"
     inkscape:document-units="mm"
     inkscape:current-layer="layer1"
     showgrid="false"
     inkscape:window-width="1920"
     inkscape:window-height="1017"
     inkscape:window-x="-8"
     inkscape:window-y="-8"
     inkscape:window-maximized="1" />
  <metadata
     id="metadata4546">
    <rdf:RDF>
      <cc:Work
         rdf:about="">
        <dc:format>image/svg+xml</dc:format>
        <dc:type
           rdf:resource="http://purl.org/dc/dcmitype/StillImage" />
        <dc:title />
      </cc:Work>
    </rdf:RDF>
  </metadata>
  <g
     inkscape:label="Layer 1"
     inkscape:groupmode="layer"
     id="layer1"
     transform="translate(-41.31376,-168.29355)"
     style="display:inline">
    <g
       transform="matrix(0.0035318,0,0,0.0035318,43.9918,173.11219)"
       id="g6" />
    <g
       transform="matrix(0.0035318,0,0,0.0035318,43.9918,173.11219)"
       id="g8" />
    <g
       transform="matrix(0.0035318,0,0,0.0035318,43.9918,173.11219)"
       id="g10" />
    <g
       transform="matrix(0.0035318,0,0,0.0035318,43.9918,173.11219)"
       id="g12" />
    <g
       transform="matrix(0.0035318,0,0,0.0035318,43.9918,173.11219)"
       id="g14" />
    <g
       transform="matrix(0.0035318,0,0,0.0035318,43.9918,173.11219)"
       id="g16" />
    <g
       transform="matrix(0.0035318,0,0,0.0035318,43.9918,173.11219)"
       id="g18" />
    <g
       transform="matrix(0.0035318,0,0,0.0035318,43.9918,173.11219)"
       id="g20" />
    <g
       transform="matrix(0.0035318,0,0,0.0035318,43.9918,173.11219)"
       id="g22" />
    <g
       transform="matrix(0.0035318,0,0,0.0035318,43.9918,173.11219)"
       id="g24" />
    <g
       transform="matrix(0.0035318,0,0,0.0035318,43.9918,173.11219)"
       id="g26" />
    <g
       transform="matrix(0.0035318,0,0,0.0035318,43.9918,173.11219)"
       id="g28" />
    <g
       transform="matrix(0.0035318,0,0,0.0035318,43.9918,173.11219)"
       id="g30" />
    <g
       transform="matrix(0.0035318,0,0,0.0035318,43.9918,173.11219)"
       id="g32" />
    <g
       transform="matrix(0.0035318,0,0,0.0035318,43.9918,173.11219)"
       id="g34" />
    <path
       inkscape:connector-curvature="0"
       style="fill:#eaeaea;fill-opacity:1;stroke-width:0.03145382"
       d="m 41.835394,169.23471 0.851479,9.54999 3.820818,1.06066 3.831342,-1.06221 0.85233,-9.54844 z m 0.827641,0.7134 h 7.700687 l -0.701568,8.2645 -3.153458,0.91935 -3.144789,-0.91804 z"
       id="polygon3101-2" />
    <path
       inkscape:connector-curvature="0"
       style="fill:#eaeaea;fill-opacity:1;stroke-width:0.02683793"
       d="m 44.013896,171.59141 0.0239,0.26817 0.04556,0.50663 0.02,0.22464 h 0.0032 2.407391 0.0035 1.41032 l -0.09133,1.02336 H 46.51391 v 1.2e-4 h -1.18844 l 0.02391,0.26811 0.04556,0.50669 0.02,0.22459 h 0.0032 1.095793 v -1.2e-4 h 1.233674 l -0.116551,1.29606 -1.114614,0.30086 v 1.3e-4 l -8.79e-4,2.5e-4 -1.113029,-0.30059 -0.07112,-0.79704 h -0.540828 -0.462381 l 0.139995,1.5692 2.047101,0.56829 0.0046,-0.002 v -1.3e-4 l 2.045384,-0.56685 0.01499,-0.16884 0.173871,-1.94238 h -6.7e-5 l 0.241889,-2.71168 0.02397,-0.26816 h -2.502547 -0.0035 z"
       id="polygon3107" />
  </g>
</svg>
