<?xml version="1.0" encoding="UTF-8" standalone="no"?>
<!-- Created with Inkscape (http://www.inkscape.org/) -->

<svg
   xmlns:dc="http://purl.org/dc/elements/1.1/"
   xmlns:cc="http://creativecommons.org/ns#"
   xmlns:rdf="http://www.w3.org/1999/02/22-rdf-syntax-ns#"
   xmlns:svg="http://www.w3.org/2000/svg"
   xmlns="http://www.w3.org/2000/svg"
   xmlns:sodipodi="http://sodipodi.sourceforge.net/DTD/sodipodi-0.dtd"
   xmlns:inkscape="http://www.inkscape.org/namespaces/inkscape"
   sodipodi:docname="git.svg"
   inkscape:version="0.92.1 r15371"
   id="svg4549"
   version="1.1"
   viewBox="0 0 10.49845 11.90625"
   height="11.90625mm"
   width="10.49845mm">
  <defs
     id="defs4543" />
  <sodipodi:namedview
     showguides="false"
     inkscape:window-maximized="1"
     inkscape:window-y="-8"
     inkscape:window-x="-8"
     inkscape:window-height="1017"
     inkscape:window-width="1920"
     showgrid="false"
     inkscape:current-layer="layer1"
     inkscape:document-units="mm"
     inkscape:cy="20.829665"
     inkscape:cx="33.946939"
     inkscape:zoom="9.9502303"
     inkscape:pageshadow="2"
     inkscape:pageopacity="0.0"
     borderopacity="1.0"
     bordercolor="#666666"
     pagecolor="#ffffff"
     id="base" />
  <metadata
     id="metadata4546">
    <rdf:RDF>
      <cc:Work
         rdf:about="">
        <dc:format>image/svg+xml</dc:format>
        <dc:type
           rdf:resource="http://purl.org/dc/dcmitype/StillImage" />
        <dc:title></dc:title>
      </cc:Work>
    </rdf:RDF>
  </metadata>
  <g
     inkscape:label="Layer 1"
     inkscape:groupmode="layer"
     id="layer1"
     transform="translate(-41.31376,-168.29355)"
     style="display:inline">
    <g
       transform="matrix(0.0035318,0,0,0.0035318,43.9918,173.11219)"
       id="g6" />
    <g
       transform="matrix(0.0035318,0,0,0.0035318,43.9918,173.11219)"
       id="g8" />
    <g
       transform="matrix(0.0035318,0,0,0.0035318,43.9918,173.11219)"
       id="g10" />
    <g
       transform="matrix(0.0035318,0,0,0.0035318,43.9918,173.11219)"
       id="g12" />
    <g
       transform="matrix(0.0035318,0,0,0.0035318,43.9918,173.11219)"
       id="g14" />
    <g
       transform="matrix(0.0035318,0,0,0.0035318,43.9918,173.11219)"
       id="g16" />
    <g
       transform="matrix(0.0035318,0,0,0.0035318,43.9918,173.11219)"
       id="g18" />
    <g
       transform="matrix(0.0035318,0,0,0.0035318,43.9918,173.11219)"
       id="g20" />
    <g
       transform="matrix(0.0035318,0,0,0.0035318,43.9918,173.11219)"
       id="g22" />
    <g
       transform="matrix(0.0035318,0,0,0.0035318,43.9918,173.11219)"
       id="g24" />
    <g
       transform="matrix(0.0035318,0,0,0.0035318,43.9918,173.11219)"
       id="g26" />
    <g
       transform="matrix(0.0035318,0,0,0.0035318,43.9918,173.11219)"
       id="g28" />
    <g
       transform="matrix(0.0035318,0,0,0.0035318,43.9918,173.11219)"
       id="g30" />
    <g
       transform="matrix(0.0035318,0,0,0.0035318,43.9918,173.11219)"
       id="g32" />
    <g
       transform="matrix(0.0035318,0,0,0.0035318,43.9918,173.11219)"
       id="g34" />
    <rect
       style="opacity:1;fill:none;fill-opacity:1;fill-rule:nonzero;stroke:none;stroke-width:0.42809585;stroke-miterlimit:4;stroke-dasharray:none;stroke-dashoffset:0;stroke-opacity:1"
       id="rect4511"
       width="11.905999"
       height="11.905999"
       x="27.727261"
       y="168.29977" />
    <path
       style="opacity:1;fill:#eaeaea;fill-opacity:1;fill-rule:nonzero;stroke:none;stroke-width:0.09719195;stroke-miterlimit:4;stroke-dasharray:none;stroke-dashoffset:0;stroke-opacity:1;paint-order:stroke fill markers"
       d="m 46.552436,168.90249 c -0.210208,4e-4 -0.42008,0.0815 -0.580843,0.24288 l -0.856279,0.85989 1.248503,1.23662 c 0.08,-0.0267 0.163723,-0.0405 0.248047,-0.0408 0.439209,5e-5 0.795245,0.35609 0.7953,0.7953 -9.8e-5,0.0852 -0.01388,0.16981 -0.04082,0.25063 l 1.134297,1.13688 c 0.08106,-0.0276 0.166042,-0.0419 0.251664,-0.0424 0.439613,-2.3e-4 0.796048,0.35621 0.795817,0.79582 -5.5e-5,0.43941 -0.356405,0.79553 -0.795817,0.7953 -0.439209,-5e-5 -0.795245,-0.35609 -0.7953,-0.7953 2.06e-4,-0.1043 0.02093,-0.20755 0.06098,-0.30386 l -1.061434,-1.06143 v 2.81482 c 0.2734,0.13296 0.447095,0.41015 0.447518,0.71416 -5.5e-5,0.43921 -0.356091,0.79525 -0.7953,0.7953 -0.439209,-5e-5 -0.795245,-0.35609 -0.7953,-0.7953 1.48e-4,-0.32093 0.19315,-0.61033 0.489375,-0.7338 v -2.83807 c -0.294663,-0.12429 -0.486234,-0.41297 -0.486275,-0.73277 4.3e-5,-0.10427 0.02059,-0.20752 0.06046,-0.30386 l -1.210779,-1.23713 -3.021521,3.0334 c -0.321526,0.32276 -0.320177,0.84171 0.0026,1.16324 l 4.342887,4.32635 c 0.322761,0.32153 0.841711,0.32069 1.163237,-0.002 l 4.326867,-4.3434 c 0.321526,-0.32276 0.320178,-0.8412 -0.0026,-1.16272 l -4.343404,-4.32687 c -0.16138,-0.16076 -0.371669,-0.24121 -0.581876,-0.24081 z"
       id="rect4522"
       inkscape:connector-curvature="0" />
  </g>
</svg>
