<?xml version="1.0" encoding="UTF-8" standalone="no"?>
<!-- Created with Inkscape (http://www.inkscape.org/) -->

<svg
   xmlns:dc="http://purl.org/dc/elements/1.1/"
   xmlns:cc="http://creativecommons.org/ns#"
   xmlns:rdf="http://www.w3.org/1999/02/22-rdf-syntax-ns#"
   xmlns:svg="http://www.w3.org/2000/svg"
   xmlns="http://www.w3.org/2000/svg"
   xmlns:sodipodi="http://sodipodi.sourceforge.net/DTD/sodipodi-0.dtd"
   xmlns:inkscape="http://www.inkscape.org/namespaces/inkscape"
   sodipodi:docname="git1.svg"
   inkscape:version="0.92.1 r15371"
   id="svg4549"
   version="1.1"
   viewBox="0 0 10.49845 11.90625"
   height="11.90625mm"
   width="10.49845mm"
   inkscape:export-filename="F:\lipa\0_programowanie\0_portfolio\moja_www\images\git1.png"
   inkscape:export-xdpi="73"
   inkscape:export-ydpi="73">
  <defs
     id="defs4543" />
  <sodipodi:namedview
     showguides="false"
     inkscape:window-maximized="1"
     inkscape:window-y="-8"
     inkscape:window-x="-8"
     inkscape:window-height="1017"
     inkscape:window-width="1920"
     showgrid="false"
     inkscape:current-layer="layer1"
     inkscape:document-units="mm"
     inkscape:cy="15.878156"
     inkscape:cx="20.380252"
     inkscape:zoom="7.4490461"
     inkscape:pageshadow="2"
     inkscape:pageopacity="0.0"
     borderopacity="1.0"
     bordercolor="#666666"
     pagecolor="#ffffff"
     id="base" />
  <metadata
     id="metadata4546">
    <rdf:RDF>
      <cc:Work
         rdf:about="">
        <dc:format>image/svg+xml</dc:format>
        <dc:type
           rdf:resource="http://purl.org/dc/dcmitype/StillImage" />
        <dc:title />
      </cc:Work>
    </rdf:RDF>
  </metadata>
  <g
     inkscape:label="Layer 1"
     inkscape:groupmode="layer"
     id="layer1"
     transform="translate(-41.31376,-168.29355)"
     style="display:inline">
    <g
       transform="matrix(0.0035318,0,0,0.0035318,43.9918,173.11219)"
       id="g6" />
    <g
       transform="matrix(0.0035318,0,0,0.0035318,43.9918,173.11219)"
       id="g8" />
    <g
       transform="matrix(0.0035318,0,0,0.0035318,43.9918,173.11219)"
       id="g10" />
    <g
       transform="matrix(0.0035318,0,0,0.0035318,43.9918,173.11219)"
       id="g12" />
    <g
       transform="matrix(0.0035318,0,0,0.0035318,43.9918,173.11219)"
       id="g14" />
    <g
       transform="matrix(0.0035318,0,0,0.0035318,43.9918,173.11219)"
       id="g16" />
    <g
       transform="matrix(0.0035318,0,0,0.0035318,43.9918,173.11219)"
       id="g18" />
    <g
       transform="matrix(0.0035318,0,0,0.0035318,43.9918,173.11219)"
       id="g20" />
    <g
       transform="matrix(0.0035318,0,0,0.0035318,43.9918,173.11219)"
       id="g22" />
    <g
       transform="matrix(0.0035318,0,0,0.0035318,43.9918,173.11219)"
       id="g24" />
    <g
       transform="matrix(0.0035318,0,0,0.0035318,43.9918,173.11219)"
       id="g26" />
    <g
       transform="matrix(0.0035318,0,0,0.0035318,43.9918,173.11219)"
       id="g28" />
    <g
       transform="matrix(0.0035318,0,0,0.0035318,43.9918,173.11219)"
       id="g30" />
    <g
       transform="matrix(0.0035318,0,0,0.0035318,43.9918,173.11219)"
       id="g32" />
    <g
       transform="matrix(0.0035318,0,0,0.0035318,43.9918,173.11219)"
       id="g34" />
    <path
       style="opacity:1;fill:#eaeaea;fill-opacity:1;fill-rule:nonzero;stroke:none;stroke-width:0;stroke-miterlimit:4;stroke-dasharray:none;stroke-dashoffset:0;stroke-opacity:1;paint-order:stroke fill markers"
       d="m 46.572472,169.21062 c -0.166933,-4e-5 -0.333517,0.0639 -0.461468,0.19176 l -4.378365,4.37546 c -0.255902,0.25575 -0.256231,0.668 -4.83e-4,0.9239 l 4.375944,4.37836 c 0.255746,0.25591 0.667515,0.25576 0.923417,0 l 4.378365,-4.37546 c 0.255902,-0.25574 0.256231,-0.668 4.84e-4,-0.92389 l -4.375944,-4.37837 c -0.127874,-0.12796 -0.295018,-0.1917 -0.46195,-0.19176 z m 0,0.76121 4.267961,4.27087 -4.270383,4.26796 -4.267962,-4.27087 z"
       id="rect4510"
       inkscape:connector-curvature="0" />
    <path
       style="opacity:1;fill:#eaeaea;fill-opacity:1;fill-rule:nonzero;stroke:none;stroke-width:0.00986097;stroke-miterlimit:4;stroke-dasharray:none;stroke-dashoffset:0;stroke-opacity:1;paint-order:stroke fill markers"
       d="m 45.771047,170.74755 -0.495847,0.49779 0.654189,0.65129 a 0.71851089,0.71851089 0 0 0 -0.02276,0.17577 0.71851089,0.71851089 0 0 0 0.3622,0.6232 v 3.09323 a 0.71851089,0.71851089 0 0 0 -0.367042,0.62562 0.71851089,0.71851089 0 0 0 0.71859,0.71859 0.71851089,0.71851089 0 0 0 0.718106,-0.71859 0.71851089,0.71851089 0 0 0 -0.367043,-0.62611 v -2.85402 l 1.128245,1.12388 a 0.71851089,0.71851089 0 0 0 -0.02421,0.18256 0.71851089,0.71851089 0 0 0 0.71859,0.71859 0.71851089,0.71851089 0 0 0 0.71859,-0.71859 0.71851089,0.71851089 0 0 0 -0.71859,-0.7186 0.71851089,0.71851089 0 0 0 -0.206279,0.031 l -1.27545,-1.27061 a 0.71851089,0.71851089 0 0 0 0.03148,-0.21016 0.71851089,0.71851089 0 0 0 -0.71859,-0.71859 0.71851089,0.71851089 0 0 0 -0.212576,0.0329 z"
       id="rect4528"
       inkscape:connector-curvature="0" />
  </g>
</svg>
