<?xml version="1.0" encoding="UTF-8" standalone="no"?>
<!-- Created with Inkscape (http://www.inkscape.org/) -->

<svg
   xmlns:dc="http://purl.org/dc/elements/1.1/"
   xmlns:cc="http://creativecommons.org/ns#"
   xmlns:rdf="http://www.w3.org/1999/02/22-rdf-syntax-ns#"
   xmlns:svg="http://www.w3.org/2000/svg"
   xmlns="http://www.w3.org/2000/svg"
   xmlns:sodipodi="http://sodipodi.sourceforge.net/DTD/sodipodi-0.dtd"
   xmlns:inkscape="http://www.inkscape.org/namespaces/inkscape"
   width="10.49845mm"
   height="11.90625mm"
   viewBox="0 0 10.49845 11.90625"
   version="1.1"
   id="svg4549"
   inkscape:version="0.92.1 r15371"
   sodipodi:docname="html.svg">
  <defs
     id="defs4543" />
  <sodipodi:namedview
     id="base"
     pagecolor="#ffffff"
     bordercolor="#666666"
     borderopacity="1.0"
     inkscape:pageopacity="0.0"
     inkscape:pageshadow="2"
     inkscape:zoom="8.1317567"
     inkscape:cx="50.503401"
     inkscape:cy="43.535573"
     inkscape:document-units="mm"
     inkscape:current-layer="layer1"
     showgrid="false"
     inkscape:window-width="1920"
     inkscape:window-height="1017"
     inkscape:window-x="-8"
     inkscape:window-y="-8"
     inkscape:window-maximized="1" />
  <metadata
     id="metadata4546">
    <rdf:RDF>
      <cc:Work
         rdf:about="">
        <dc:format>image/svg+xml</dc:format>
        <dc:type
           rdf:resource="http://purl.org/dc/dcmitype/StillImage" />
        <dc:title />
      </cc:Work>
    </rdf:RDF>
  </metadata>
  <g
     inkscape:label="Layer 1"
     inkscape:groupmode="layer"
     id="layer1"
     transform="translate(-41.31376,-168.29355)"
     style="display:inline">
    <g
       transform="matrix(0.0035318,0,0,0.0035318,43.9918,173.11219)"
       id="g6" />
    <g
       transform="matrix(0.0035318,0,0,0.0035318,43.9918,173.11219)"
       id="g8" />
    <g
       transform="matrix(0.0035318,0,0,0.0035318,43.9918,173.11219)"
       id="g10" />
    <g
       transform="matrix(0.0035318,0,0,0.0035318,43.9918,173.11219)"
       id="g12" />
    <g
       transform="matrix(0.0035318,0,0,0.0035318,43.9918,173.11219)"
       id="g14" />
    <g
       transform="matrix(0.0035318,0,0,0.0035318,43.9918,173.11219)"
       id="g16" />
    <g
       transform="matrix(0.0035318,0,0,0.0035318,43.9918,173.11219)"
       id="g18" />
    <g
       transform="matrix(0.0035318,0,0,0.0035318,43.9918,173.11219)"
       id="g20" />
    <g
       transform="matrix(0.0035318,0,0,0.0035318,43.9918,173.11219)"
       id="g22" />
    <g
       transform="matrix(0.0035318,0,0,0.0035318,43.9918,173.11219)"
       id="g24" />
    <g
       transform="matrix(0.0035318,0,0,0.0035318,43.9918,173.11219)"
       id="g26" />
    <g
       transform="matrix(0.0035318,0,0,0.0035318,43.9918,173.11219)"
       id="g28" />
    <g
       transform="matrix(0.0035318,0,0,0.0035318,43.9918,173.11219)"
       id="g30" />
    <g
       transform="matrix(0.0035318,0,0,0.0035318,43.9918,173.11219)"
       id="g32" />
    <g
       transform="matrix(0.0035318,0,0,0.0035318,43.9918,173.11219)"
       id="g34" />
    <path
       inkscape:connector-curvature="0"
       style="fill:#eaeaea;fill-opacity:1;stroke-width:0.03043921"
       d="m 42.186515,169.04258 0.801485,9.50107 3.596668,1.05519 3.606689,-1.05672 0.80232,-9.49954 z m 0.77393,0.71353 h 7.259303 l -0.661342,8.21527 -2.972763,0.91386 -2.964554,-0.91253 z"
       id="polygon3069-9" />
    <path
       inkscape:connector-curvature="0"
       style="fill:#eaeaea;fill-opacity:1;stroke-width:0.02764955"
       d="m 44.078403,171.28699 0.02402,0.284 0.246132,2.91687 h 2.241239 1.22978 l -0.116241,1.37269 -1.117015,0.31871 v 1.2e-4 l -8.72e-4,2.4e-4 -1.115435,-0.31839 -0.0713,-0.84407 H 44.85672 44.393342 l 0.140321,1.66186 2.05155,0.60194 0.0045,-0.002 v -8e-5 l 2.049718,-0.60046 0.01504,-0.17882 0.235388,-2.7866 0.02441,-0.28418 H 48.644367 46.58972 45.264431 l -0.09152,-1.0839 h 1.413337 0.0035 2.412468 0.0033 l 0.02009,-0.23792 0.04557,-0.53663 0.02402,-0.28399 h -2.505384 -0.0035 z"
       id="polygon3073" />
  </g>
</svg>
