<?xml version="1.0" encoding="UTF-8" standalone="no"?>
<!-- Created with Inkscape (http://www.inkscape.org/) -->

<svg
   xmlns:dc="http://purl.org/dc/elements/1.1/"
   xmlns:cc="http://creativecommons.org/ns#"
   xmlns:rdf="http://www.w3.org/1999/02/22-rdf-syntax-ns#"
   xmlns:svg="http://www.w3.org/2000/svg"
   xmlns="http://www.w3.org/2000/svg"
   xmlns:sodipodi="http://sodipodi.sourceforge.net/DTD/sodipodi-0.dtd"
   xmlns:inkscape="http://www.inkscape.org/namespaces/inkscape"
   width="10.49845mm"
   height="11.90625mm"
   viewBox="0 0 10.49845 11.90625"
   version="1.1"
   id="svg4549"
   inkscape:version="0.92.1 r15371"
   sodipodi:docname="illustrator.svg">
  <defs
     id="defs4543" />
  <sodipodi:namedview
     id="base"
     pagecolor="#ffffff"
     bordercolor="#666666"
     borderopacity="1.0"
     inkscape:pageopacity="0.0"
     inkscape:pageshadow="2"
     inkscape:zoom="11.313709"
     inkscape:cx="30.012426"
     inkscape:cy="9.3687567"
     inkscape:document-units="mm"
     inkscape:current-layer="layer1"
     showgrid="false"
     inkscape:window-width="1920"
     inkscape:window-height="1017"
     inkscape:window-x="-8"
     inkscape:window-y="-8"
     inkscape:window-maximized="1" />
  <metadata
     id="metadata4546">
    <rdf:RDF>
      <cc:Work
         rdf:about="">
        <dc:format>image/svg+xml</dc:format>
        <dc:type
           rdf:resource="http://purl.org/dc/dcmitype/StillImage" />
        <dc:title></dc:title>
      </cc:Work>
    </rdf:RDF>
  </metadata>
  <g
     inkscape:label="Layer 1"
     inkscape:groupmode="layer"
     id="layer1"
     transform="translate(-41.31376,-168.29355)"
     style="display:inline">
    <g
       transform="matrix(0.00120912,0,0,0.00120912,45.106789,173.31312)"
       id="g6" />
    <g
       transform="matrix(0.00120912,0,0,0.00120912,45.106789,173.31312)"
       id="g8" />
    <g
       transform="matrix(0.00120912,0,0,0.00120912,45.106789,173.31312)"
       id="g10" />
    <g
       transform="matrix(0.00120912,0,0,0.00120912,45.106789,173.31312)"
       id="g12" />
    <g
       transform="matrix(0.00120912,0,0,0.00120912,45.106789,173.31312)"
       id="g14" />
    <g
       transform="matrix(0.00120912,0,0,0.00120912,45.106789,173.31312)"
       id="g16" />
    <g
       transform="matrix(0.00120912,0,0,0.00120912,45.106789,173.31312)"
       id="g18" />
    <g
       transform="matrix(0.00120912,0,0,0.00120912,45.106789,173.31312)"
       id="g20" />
    <g
       transform="matrix(0.00120912,0,0,0.00120912,45.106789,173.31312)"
       id="g22" />
    <g
       transform="matrix(0.00120912,0,0,0.00120912,45.106789,173.31312)"
       id="g24" />
    <g
       transform="matrix(0.00120912,0,0,0.00120912,45.106789,173.31312)"
       id="g26" />
    <g
       transform="matrix(0.00120912,0,0,0.00120912,45.106789,173.31312)"
       id="g28" />
    <g
       transform="matrix(0.00120912,0,0,0.00120912,45.106789,173.31312)"
       id="g30" />
    <g
       transform="matrix(0.00120912,0,0,0.00120912,45.106789,173.31312)"
       id="g32" />
    <g
       transform="matrix(0.00120912,0,0,0.00120912,45.106789,173.31312)"
       id="g34" />
    <rect
       style="opacity:1;fill:#eaeaea;fill-opacity:1;fill-rule:nonzero;stroke:none;stroke-width:0.00684701;stroke-miterlimit:4;stroke-dasharray:none;stroke-dashoffset:0;stroke-opacity:1;paint-order:stroke fill markers"
       id="rect4564"
       width="0.88315749"
       height="3.7137907"
       x="48.583103"
       y="173.31654" />
    <path
       style="fill:#eaeaea;fill-opacity:1;stroke:none;stroke-width:0.09058025px;stroke-linecap:butt;stroke-linejoin:miter;stroke-opacity:1"
       d="m 45.412793,172.07107 v 0.23778 l -1.641766,4.54032 -0.01133,0.16984 0.871836,0.0113 0.442816,-1.34685 h 1.900417 l 0.476077,1.34685 0.94173,-0.002 -5.44e-4,-0.22161 -1.816206,-4.73406 z m 0.577449,0.82654 0.698813,1.9772 h -1.348797 z"
       id="path4566"
       inkscape:connector-curvature="0"
       sodipodi:nodetypes="cccccccccccccccc" />
    <circle
       style="opacity:1;fill:#eaeaea;fill-opacity:1;fill-rule:nonzero;stroke:none;stroke-width:0.00684701;stroke-miterlimit:4;stroke-dasharray:none;stroke-dashoffset:0;stroke-opacity:1;paint-order:stroke fill markers"
       id="path4573"
       cx="49.029732"
       cy="172.59712"
       r="0.40431511" />
    <path
       style="opacity:1;fill:#eaeaea;fill-opacity:1;fill-rule:nonzero;stroke:none;stroke-width:0.00683445;stroke-miterlimit:4;stroke-dasharray:none;stroke-dashoffset:0;stroke-opacity:1;paint-order:stroke fill markers"
       d="m 41.406739,169.52898 v 10.04185 h 10.338358 v -10.04185 z m 0.764626,0.74269 h 8.809106 v 8.55648 h -8.809106 z"
       id="rect4575"
       inkscape:connector-curvature="0" />
  </g>
</svg>
