<?xml version="1.0" encoding="UTF-8" standalone="no"?>
<!-- Created with Inkscape (http://www.inkscape.org/) -->

<svg
   xmlns:dc="http://purl.org/dc/elements/1.1/"
   xmlns:cc="http://creativecommons.org/ns#"
   xmlns:rdf="http://www.w3.org/1999/02/22-rdf-syntax-ns#"
   xmlns:svg="http://www.w3.org/2000/svg"
   xmlns="http://www.w3.org/2000/svg"
   xmlns:sodipodi="http://sodipodi.sourceforge.net/DTD/sodipodi-0.dtd"
   xmlns:inkscape="http://www.inkscape.org/namespaces/inkscape"
   width="10.49845mm"
   height="11.90625mm"
   viewBox="0 0 10.49845 11.90625"
   version="1.1"
   id="svg4549"
   inkscape:version="0.92.1 r15371"
   sodipodi:docname="js.svg"
   inkscape:export-filename="F:\lipa\0_programowanie\0_portfolio\moja_www\images\js.png"
   inkscape:export-xdpi="73"
   inkscape:export-ydpi="73">
  <defs
     id="defs4543" />
  <sodipodi:namedview
     id="base"
     pagecolor="#ffffff"
     bordercolor="#666666"
     borderopacity="1.0"
     inkscape:pageopacity="0.0"
     inkscape:pageshadow="2"
     inkscape:zoom="6.0876811"
     inkscape:cx="6.9483244"
     inkscape:cy="35.714277"
     inkscape:document-units="mm"
     inkscape:current-layer="layer1"
     showgrid="false"
     inkscape:window-width="1920"
     inkscape:window-height="1017"
     inkscape:window-x="-8"
     inkscape:window-y="-8"
     inkscape:window-maximized="1" />
  <metadata
     id="metadata4546">
    <rdf:RDF>
      <cc:Work
         rdf:about="">
        <dc:format>image/svg+xml</dc:format>
        <dc:type
           rdf:resource="http://purl.org/dc/dcmitype/StillImage" />
        <dc:title />
      </cc:Work>
    </rdf:RDF>
  </metadata>
  <g
     inkscape:label="Layer 1"
     inkscape:groupmode="layer"
     id="layer1"
     transform="translate(-41.31376,-168.29355)"
     style="display:inline">
    <g
       transform="matrix(0.0035318,0,0,0.0035318,43.9918,173.11219)"
       id="g6" />
    <g
       transform="matrix(0.0035318,0,0,0.0035318,43.9918,173.11219)"
       id="g8" />
    <g
       transform="matrix(0.0035318,0,0,0.0035318,43.9918,173.11219)"
       id="g10" />
    <g
       transform="matrix(0.0035318,0,0,0.0035318,43.9918,173.11219)"
       id="g12" />
    <g
       transform="matrix(0.0035318,0,0,0.0035318,43.9918,173.11219)"
       id="g14" />
    <g
       transform="matrix(0.0035318,0,0,0.0035318,43.9918,173.11219)"
       id="g16" />
    <g
       transform="matrix(0.0035318,0,0,0.0035318,43.9918,173.11219)"
       id="g18" />
    <g
       transform="matrix(0.0035318,0,0,0.0035318,43.9918,173.11219)"
       id="g20" />
    <g
       transform="matrix(0.0035318,0,0,0.0035318,43.9918,173.11219)"
       id="g22" />
    <g
       transform="matrix(0.0035318,0,0,0.0035318,43.9918,173.11219)"
       id="g24" />
    <g
       transform="matrix(0.0035318,0,0,0.0035318,43.9918,173.11219)"
       id="g26" />
    <g
       transform="matrix(0.0035318,0,0,0.0035318,43.9918,173.11219)"
       id="g28" />
    <g
       transform="matrix(0.0035318,0,0,0.0035318,43.9918,173.11219)"
       id="g30" />
    <g
       transform="matrix(0.0035318,0,0,0.0035318,43.9918,173.11219)"
       id="g32" />
    <g
       transform="matrix(0.0035318,0,0,0.0035318,43.9918,173.11219)"
       id="g34" />
    <path
       style="opacity:1;fill:#eaeaea;fill-opacity:1;fill-rule:nonzero;stroke:none;stroke-width:0.35706967;stroke-miterlimit:4;stroke-dasharray:none;stroke-dashoffset:0;stroke-opacity:1"
       d="m 41.600102,168.97834 v 9.93102 h 9.930034 v -9.93102 z m 0.51913,0.51913 h 8.891774 v 8.89276 h -8.891774 z"
       id="rect4506"
       inkscape:connector-curvature="0" />
    <g
       aria-label="JS"
       style="font-style:normal;font-variant:normal;font-weight:normal;font-stretch:normal;font-size:6.71185207px;line-height:0.5;font-family:'Century Gothic';-inkscape-font-specification:'Century Gothic';letter-spacing:0px;word-spacing:0px;fill:#eaeaea;fill-opacity:1;stroke:none;stroke-width:0.1677963"
       id="text4503"
       transform="translate(-0.3190881,-0.45204147)">
      <path
         d="m 45.569863,178.12578 c 0.83227,0 1.402777,-0.44299 1.402777,-1.41621 v -3.20826 h -0.939659 v 3.19484 c 0,0.46983 -0.194644,0.59064 -0.503389,0.59064 -0.322169,0 -0.456406,-0.22149 -0.604067,-0.48325 l -0.765151,0.46312 c 0.221491,0.46983 0.657762,0.85912 1.409489,0.85912 z"
         style="font-style:normal;font-variant:normal;font-weight:normal;font-stretch:normal;font-family:'Neutra Text';-inkscape-font-specification:'Neutra Text';fill:#eaeaea;fill-opacity:1;stroke-width:0.1677963"
         id="path4522"
         inkscape:connector-curvature="0" />
      <path
         d="m 49.194892,178.12578 c 0.892677,0 1.55715,-0.46312 1.55715,-1.30882 0,-0.78528 -0.449694,-1.1343 -1.248404,-1.4766 l -0.234915,-0.10068 c -0.402711,-0.17451 -0.577219,-0.28861 -0.577219,-0.57051 0,-0.2282 0.174508,-0.40271 0.449694,-0.40271 0.268474,0 0.442982,0.1141 0.604066,0.40271 l 0.731592,-0.46983 c -0.308745,-0.54366 -0.738304,-0.75173 -1.335658,-0.75173 -0.838982,0 -1.37593,0.53695 -1.37593,1.2417 0,0.76515 0.449694,1.12759 1.127591,1.4162 l 0.234915,0.10068 c 0.429558,0.18793 0.684609,0.30203 0.684609,0.6242 0,0.26847 -0.248339,0.46312 -0.637626,0.46312 -0.463118,0 -0.72488,-0.24163 -0.926236,-0.57051 l -0.765151,0.44298 c 0.275186,0.54366 0.838982,0.9598 1.711522,0.9598 z"
         style="font-style:normal;font-variant:normal;font-weight:normal;font-stretch:normal;font-family:'Neutra Text';-inkscape-font-specification:'Neutra Text';fill:#eaeaea;fill-opacity:1;stroke-width:0.1677963"
         id="path4524"
         inkscape:connector-curvature="0" />
    </g>
  </g>
</svg>
