<?xml version="1.0" encoding="UTF-8" standalone="no"?>
<!-- Created with Inkscape (http://www.inkscape.org/) -->

<svg
   xmlns:dc="http://purl.org/dc/elements/1.1/"
   xmlns:cc="http://creativecommons.org/ns#"
   xmlns:rdf="http://www.w3.org/1999/02/22-rdf-syntax-ns#"
   xmlns:svg="http://www.w3.org/2000/svg"
   xmlns="http://www.w3.org/2000/svg"
   xmlns:sodipodi="http://sodipodi.sourceforge.net/DTD/sodipodi-0.dtd"
   xmlns:inkscape="http://www.inkscape.org/namespaces/inkscape"
   width="10.49845mm"
   height="11.90625mm"
   viewBox="0 0 10.49845 11.90625"
   version="1.1"
   id="svg4549"
   inkscape:version="0.92.1 r15371"
   sodipodi:docname="photoshop.svg">
  <defs
     id="defs4543" />
  <sodipodi:namedview
     id="base"
     pagecolor="#ffffff"
     bordercolor="#666666"
     borderopacity="1.0"
     inkscape:pageopacity="0.0"
     inkscape:pageshadow="2"
     inkscape:zoom="9.7890099"
     inkscape:cx="51.744819"
     inkscape:cy="18.09851"
     inkscape:document-units="mm"
     inkscape:current-layer="layer1"
     showgrid="false"
     inkscape:window-width="1920"
     inkscape:window-height="1017"
     inkscape:window-x="-8"
     inkscape:window-y="-8"
     inkscape:window-maximized="1"
     inkscape:snap-global="false" />
  <metadata
     id="metadata4546">
    <rdf:RDF>
      <cc:Work
         rdf:about="">
        <dc:format>image/svg+xml</dc:format>
        <dc:type
           rdf:resource="http://purl.org/dc/dcmitype/StillImage" />
        <dc:title />
      </cc:Work>
    </rdf:RDF>
  </metadata>
  <g
     inkscape:label="Layer 1"
     inkscape:groupmode="layer"
     id="layer1"
     transform="translate(-41.31376,-168.29355)"
     style="display:inline">
    <g
       transform="matrix(0.00120912,0,0,0.00120912,45.106789,173.31312)"
       id="g6" />
    <g
       transform="matrix(0.00120912,0,0,0.00120912,45.106789,173.31312)"
       id="g8" />
    <g
       transform="matrix(0.00120912,0,0,0.00120912,45.106789,173.31312)"
       id="g10" />
    <g
       transform="matrix(0.00120912,0,0,0.00120912,45.106789,173.31312)"
       id="g12" />
    <g
       transform="matrix(0.00120912,0,0,0.00120912,45.106789,173.31312)"
       id="g14" />
    <g
       transform="matrix(0.00120912,0,0,0.00120912,45.106789,173.31312)"
       id="g16" />
    <g
       transform="matrix(0.00120912,0,0,0.00120912,45.106789,173.31312)"
       id="g18" />
    <g
       transform="matrix(0.00120912,0,0,0.00120912,45.106789,173.31312)"
       id="g20" />
    <g
       transform="matrix(0.00120912,0,0,0.00120912,45.106789,173.31312)"
       id="g22" />
    <g
       transform="matrix(0.00120912,0,0,0.00120912,45.106789,173.31312)"
       id="g24" />
    <g
       transform="matrix(0.00120912,0,0,0.00120912,45.106789,173.31312)"
       id="g26" />
    <g
       transform="matrix(0.00120912,0,0,0.00120912,45.106789,173.31312)"
       id="g28" />
    <g
       transform="matrix(0.00120912,0,0,0.00120912,45.106789,173.31312)"
       id="g30" />
    <g
       transform="matrix(0.00120912,0,0,0.00120912,45.106789,173.31312)"
       id="g32" />
    <g
       transform="matrix(0.00120912,0,0,0.00120912,45.106789,173.31312)"
       id="g34" />
    <path
       style="opacity:1;fill:#eaeaea;fill-opacity:1;fill-rule:nonzero;stroke:none;stroke-width:0.00683445;stroke-miterlimit:4;stroke-dasharray:none;stroke-dashoffset:0;stroke-opacity:1;paint-order:stroke fill markers"
       d="m 41.406739,169.52898 v 10.04185 h 10.338358 v -10.04185 z m 0.764626,0.74269 h 8.809106 v 8.55648 h -8.809106 z"
       id="rect4575"
       inkscape:connector-curvature="0" />
    <g
       aria-label="P"
       style="font-style:normal;font-variant:normal;font-weight:normal;font-stretch:normal;font-size:5.5869689px;line-height:0.5;font-family:'Century Gothic';-inkscape-font-specification:'Century Gothic';letter-spacing:0px;word-spacing:0px;fill:#ff0000;fill-opacity:1;stroke:none;stroke-width:0.13967423"
       id="text4514" />
    <path
       id="rect4521"
       style="opacity:1;fill:#eaeaea;fill-opacity:0.94117647;fill-rule:nonzero;stroke:none;stroke-width:0.07515972;stroke-miterlimit:4;stroke-dasharray:none;stroke-dashoffset:0;stroke-opacity:1;paint-order:stroke fill markers"
       d="M 9.7480469,15.205078 9.75,31.003906 h 3.275391 l -0.02734,-15.705078 z m 9.573e-4,14.30793 H 12.70526 v -3.272995 h 1.013571 c 3.990947,0 6.57253,-2.094906 6.57253,-5.557936 0,-3.463068 -2.560467,-5.528023 -6.57253,-5.528023 H 9.7490042 Z m 2.9817948,-6.125637 -0.02554,-5.636026 h 0.92911 c 2.365002,0 3.309808,0.971339 3.309808,2.956271 0,1.963805 -0.877035,2.679755 -3.284269,2.679755 z"
       transform="matrix(0.26458333,0,0,0.26458333,41.31376,168.29355)"
       inkscape:connector-curvature="0"
       sodipodi:nodetypes="ccccccccsssccccsssc" />
    <g
       aria-label="s"
       transform="scale(0.98299144,1.0173029)"
       style="font-style:normal;font-variant:normal;font-weight:normal;font-stretch:normal;font-size:5.95074797px;line-height:0.5;font-family:'Century Gothic';-inkscape-font-specification:'Century Gothic';letter-spacing:0px;word-spacing:0px;display:inline;fill:#eaeaea;fill-opacity:0.94117647;stroke:none;stroke-width:0;stroke-miterlimit:4;stroke-dasharray:none"
       id="text4535-0">
      <path
         d="m 47.767635,173.33659 v -0.74385 q 0.22664,0.13657 0.450374,0.2034 0.22664,0.0668 0.427129,0.0668 0.244074,0 0.383544,-0.0668 0.142377,-0.0668 0.142377,-0.2034 0,-0.0872 -0.06392,-0.14528 -0.06392,-0.0581 -0.165621,-0.1017 -0.09879,-0.0436 -0.217923,-0.0785 -0.119131,-0.0349 -0.229545,-0.0785 -0.177244,-0.0668 -0.313809,-0.14238 -0.13366,-0.0785 -0.22664,-0.18015 -0.09007,-0.10169 -0.139471,-0.23535 -0.04649,-0.13366 -0.04649,-0.31672 0,-0.24988 0.107509,-0.43003 0.110414,-0.18015 0.290564,-0.29347 0.183055,-0.11623 0.415506,-0.16853 0.235357,-0.0552 0.488147,-0.0552 0.197584,0 0.400978,0.032 0.203395,0.0291 0.400978,0.0872 v 0.70897 q -0.174338,-0.1017 -0.374827,-0.15109 -0.197583,-0.0523 -0.389356,-0.0523 -0.09007,0 -0.171432,0.0174 -0.07845,0.0145 -0.139471,0.0465 -0.06102,0.0291 -0.09589,0.0785 -0.03487,0.0465 -0.03487,0.10751 0,0.0814 0.0523,0.13947 0.0523,0.0581 0.136565,0.1017 0.08426,0.0407 0.185961,0.0755 0.104603,0.032 0.2063,0.0668 0.183055,0.0639 0.331243,0.13947 0.148187,0.0755 0.25279,0.17724 0.107509,0.1017 0.162716,0.23826 0.05811,0.13657 0.05811,0.32543 0,0.26442 -0.116226,0.45328 -0.113319,0.18596 -0.305092,0.3051 -0.188866,0.11622 -0.438751,0.16852 -0.246979,0.0552 -0.514298,0.0552 -0.491053,0 -0.909465,-0.15109 z"
         style="font-style:normal;font-variant:normal;font-weight:bold;font-stretch:normal;font-family:Ebrima;-inkscape-font-specification:'Ebrima Bold';fill:#eaeaea;fill-opacity:0.94117647;stroke:none;stroke-width:0;stroke-miterlimit:4;stroke-dasharray:none"
         id="path4573" />
    </g>
  </g>
</svg>
