<?xml version="1.0" encoding="UTF-8" standalone="no"?>
<svg
   xmlns:dc="http://purl.org/dc/elements/1.1/"
   xmlns:cc="http://creativecommons.org/ns#"
   xmlns:rdf="http://www.w3.org/1999/02/22-rdf-syntax-ns#"
   xmlns:svg="http://www.w3.org/2000/svg"
   xmlns="http://www.w3.org/2000/svg"
   xmlns:sodipodi="http://sodipodi.sourceforge.net/DTD/sodipodi-0.dtd"
   xmlns:inkscape="http://www.inkscape.org/namespaces/inkscape"
   width="1.2cm"
   height="1.2cm"
   viewBox="0 0 4.3540155 4.3526649"
   preserveAspectRatio="xMinYMin meet"
   id="svg5381"
   version="1.1"
   inkscape:version="0.92.1 r15371"
   sodipodi:docname="php.svg">
  <metadata
     id="metadata5393">
    <rdf:RDF>
      <cc:Work
         rdf:about="">
        <dc:format>image/svg+xml</dc:format>
        <dc:type
           rdf:resource="http://purl.org/dc/dcmitype/StillImage" />
        <dc:title></dc:title>
      </cc:Work>
    </rdf:RDF>
  </metadata>
  <defs
     id="defs5391" />
  <sodipodi:namedview
     pagecolor="#ffffff"
     bordercolor="#666666"
     borderopacity="1"
     objecttolerance="10"
     gridtolerance="10"
     guidetolerance="10"
     inkscape:pageopacity="0"
     inkscape:pageshadow="2"
     inkscape:window-width="1920"
     inkscape:window-height="1017"
     id="namedview5389"
     showgrid="false"
     fit-margin-top="0"
     fit-margin-left="0"
     fit-margin-right="0"
     fit-margin-bottom="0"
     inkscape:zoom="9.9352038"
     inkscape:cx="27.337496"
     inkscape:cy="33.158771"
     inkscape:window-x="-8"
     inkscape:window-y="-8"
     inkscape:window-maximized="1"
     inkscape:current-layer="svg5381"
     units="cm" />
  <ellipse
     style="fill:none;fill-rule:evenodd;stroke:#eaeaea;stroke-width:0.13439999;stroke-miterlimit:4;stroke-dasharray:none;stroke-opacity:1"
     id="ellipse5385"
     ry="0.92698121"
     rx="1.7807833"
     cy="2.2954922"
     cx="2.1764529" />
  <path
     style="fill:#eaeaea;fill-opacity:1;fill-rule:evenodd;stroke-width:0.01391237"
     inkscape:connector-curvature="0"
     id="path5387"
     d="M 0.89575495,2.8443635 1.090915,1.8563915 h 0.45127 c 0.19515,0.0122 0.29273,0.109769 0.29273,0.280543 0,0.29273 -0.23173,0.46349 -0.4391,0.451289 h -0.21952 l -0.0488,0.25614 z m 0.32932005,-0.439088 0.061,-0.365922 h 0.15856 c 0.0854,0 0.14635,0.03659 0.14635,0.109769 -0.0122,0.207362 -0.10976,0.243952 -0.21953,0.256153 h -0.14636 z m 0.5645,0.182948 0.19515,-0.987958 h 0.23175 l -0.0488,0.256126 h 0.21954 c 0.19516,0.0122 0.26834,0.109769 0.24395,0.231753 l -0.0854,0.500079 h -0.24394 l 0.0854,-0.451289 c 0.0122,-0.06099 0.0122,-0.09758 -0.0732,-0.09758 h -0.18297 l -0.10976,0.54887 z m 0.7406,0.25614 0.19515,-0.987972 h 0.45129 c 0.19516,0.0122 0.29274,0.109769 0.29274,0.280543 0,0.29273 -0.23175,0.46349 -0.4391,0.451289 h -0.21955 l -0.0488,0.25614 z m 0.32931,-0.439088 0.061,-0.365922 h 0.15857 c 0.0854,0 0.14636,0.03659 0.14636,0.109769 -0.0122,0.207362 -0.10977,0.243952 -0.21954,0.256153 h -0.14637 z" />
</svg>
