<?xml version="1.0" encoding="UTF-8" standalone="no"?>
<!-- Created with Inkscape (http://www.inkscape.org/) -->

<svg
   xmlns:dc="http://purl.org/dc/elements/1.1/"
   xmlns:cc="http://creativecommons.org/ns#"
   xmlns:rdf="http://www.w3.org/1999/02/22-rdf-syntax-ns#"
   xmlns:svg="http://www.w3.org/2000/svg"
   xmlns="http://www.w3.org/2000/svg"
   xmlns:sodipodi="http://sodipodi.sourceforge.net/DTD/sodipodi-0.dtd"
   xmlns:inkscape="http://www.inkscape.org/namespaces/inkscape"
   width="10.49845mm"
   height="11.90625mm"
   viewBox="0 0 10.49845 11.90625"
   version="1.1"
   id="svg4549"
   inkscape:version="0.92.1 r15371"
   sodipodi:docname="rwd.svg">
  <defs
     id="defs4543" />
  <sodipodi:namedview
     id="base"
     pagecolor="#ffffff"
     bordercolor="#666666"
     borderopacity="1.0"
     inkscape:pageopacity="0.0"
     inkscape:pageshadow="2"
     inkscape:zoom="5.7500203"
     inkscape:cx="-8.5517891"
     inkscape:cy="18.644885"
     inkscape:document-units="mm"
     inkscape:current-layer="layer1"
     showgrid="false"
     inkscape:window-width="1920"
     inkscape:window-height="1017"
     inkscape:window-x="-8"
     inkscape:window-y="-8"
     inkscape:window-maximized="1" />
  <metadata
     id="metadata4546">
    <rdf:RDF>
      <cc:Work
         rdf:about="">
        <dc:format>image/svg+xml</dc:format>
        <dc:type
           rdf:resource="http://purl.org/dc/dcmitype/StillImage" />
        <dc:title />
      </cc:Work>
    </rdf:RDF>
  </metadata>
  <g
     inkscape:label="Layer 1"
     inkscape:groupmode="layer"
     id="layer1"
     transform="translate(-41.31376,-168.29355)"
     style="display:inline">
    <g
       transform="matrix(0.0035318,0,0,0.0035318,43.9918,173.11219)"
       id="g6" />
    <g
       transform="matrix(0.0035318,0,0,0.0035318,43.9918,173.11219)"
       id="g8" />
    <g
       transform="matrix(0.0035318,0,0,0.0035318,43.9918,173.11219)"
       id="g10" />
    <g
       transform="matrix(0.0035318,0,0,0.0035318,43.9918,173.11219)"
       id="g12" />
    <g
       transform="matrix(0.0035318,0,0,0.0035318,43.9918,173.11219)"
       id="g14" />
    <g
       transform="matrix(0.0035318,0,0,0.0035318,43.9918,173.11219)"
       id="g16" />
    <g
       transform="matrix(0.0035318,0,0,0.0035318,43.9918,173.11219)"
       id="g18" />
    <g
       transform="matrix(0.0035318,0,0,0.0035318,43.9918,173.11219)"
       id="g20" />
    <g
       transform="matrix(0.0035318,0,0,0.0035318,43.9918,173.11219)"
       id="g22" />
    <g
       transform="matrix(0.0035318,0,0,0.0035318,43.9918,173.11219)"
       id="g24" />
    <g
       transform="matrix(0.0035318,0,0,0.0035318,43.9918,173.11219)"
       id="g26" />
    <g
       transform="matrix(0.0035318,0,0,0.0035318,43.9918,173.11219)"
       id="g28" />
    <g
       transform="matrix(0.0035318,0,0,0.0035318,43.9918,173.11219)"
       id="g30" />
    <g
       transform="matrix(0.0035318,0,0,0.0035318,43.9918,173.11219)"
       id="g32" />
    <g
       transform="matrix(0.0035318,0,0,0.0035318,43.9918,173.11219)"
       id="g34" />
    <g
       id="g3003"
       transform="matrix(0.07382764,0,0,-0.07382764,40.177736,165.48895)" />
    <g
       id="g3011"
       transform="matrix(0.04943484,0,0,-0.04943484,49.214799,171.20553)"
       style="fill:#eaeaea;fill-opacity:1">
      <path
         inkscape:connector-curvature="0"
         d="m 0,0 c 0,-0.85 -5.07,-65.319 -5.07,-65.319 h -14.89 l 9.29,-45.241 -26.17,-7.339 -5.06,52.58 -38.56,0.33 6.89,-51.761 -24.129,6.91 L -107.47,0 Z m -22.99,-42.56 h -59.199 l -1.151,21.86 62.54,-0.23 z"
         style="fill:#eaeaea;fill-opacity:1;fill-rule:evenodd;stroke:none"
         id="path3013" />
    </g>
    <path
       inkscape:connector-curvature="0"
       id="path3005-9"
       style="fill:#eaeaea;fill-opacity:0.94117647;fill-rule:evenodd;stroke:none;stroke-width:0.04652948"
       d="m 50.522497,169.58083 c 0,0 -0.477566,5.66556 -0.737933,8.40658 -1.041467,0.32024 -3.124856,0.95964 -3.190288,0.95964 -0.04316,0 -2.126556,-0.6394 -3.189833,-0.95964 -0.239012,-2.74102 -0.716123,-8.40658 -0.716123,-8.40658 z m 0.792597,-0.68683 c 0,0 -0.574198,6.49649 -0.887249,9.6395 -1.252201,0.36719 -3.75715,1.10038 -3.835822,1.10038 -0.0519,0 -2.556851,-0.73319 -3.835276,-1.10038 -0.287372,-3.14301 -0.861025,-9.6395 -0.861025,-9.6395 z" />
  </g>
</svg>
