<?xml version="1.0" encoding="UTF-8" standalone="no"?>
<!-- Generated by IcoMoon.io -->

<svg
   xmlns:dc="http://purl.org/dc/elements/1.1/"
   xmlns:cc="http://creativecommons.org/ns#"
   xmlns:rdf="http://www.w3.org/1999/02/22-rdf-syntax-ns#"
   xmlns:svg="http://www.w3.org/2000/svg"
   xmlns="http://www.w3.org/2000/svg"
   xmlns:sodipodi="http://sodipodi.sourceforge.net/DTD/sodipodi-0.dtd"
   xmlns:inkscape="http://www.inkscape.org/namespaces/inkscape"
   version="1.1"
   width="1.2cm"
   height="1.2cm"
   viewBox="0 0 45.354331 45.354331"
   id="svg14"
   sodipodi:docname="wordpress-logo.svg"
   inkscape:version="0.92.1 r15371">
  <metadata
     id="metadata20">
    <rdf:RDF>
      <cc:Work
         rdf:about="">
        <dc:format>image/svg+xml</dc:format>
        <dc:type
           rdf:resource="http://purl.org/dc/dcmitype/StillImage" />
        <dc:title></dc:title>
      </cc:Work>
    </rdf:RDF>
  </metadata>
  <defs
     id="defs18" />
  <sodipodi:namedview
     pagecolor="#ffffff"
     bordercolor="#666666"
     borderopacity="1"
     objecttolerance="10"
     gridtolerance="10"
     guidetolerance="10"
     inkscape:pageopacity="0"
     inkscape:pageshadow="2"
     inkscape:window-width="1920"
     inkscape:window-height="1017"
     id="namedview16"
     showgrid="false"
     units="cm"
     inkscape:zoom="4.0752625"
     inkscape:cx="-10.465197"
     inkscape:cy="22.652806"
     inkscape:window-x="-8"
     inkscape:window-y="-8"
     inkscape:window-maximized="1"
     inkscape:current-layer="svg14" />
  <g
     id="g2"
     transform="translate(0,-466.6457)" />
  <path
     d="m 38.327203,22.971533 c 0,-1.66647 -0.25772,-3.2796 -0.72487,-4.79107 l -7.18241,18.63947 c 4.73104,-2.79918 7.9072,-7.95142 7.9072,-13.8484 z"
     id="path4"
     style="fill:#eaeaea;fill-opacity:1;stroke-width:0.08145446"
     inkscape:connector-curvature="0" />
  <path
     d="m 17.159553,38.220463 c 1.59895,0.53711 3.31047,0.8257 5.09302,0.8257 1.86254,0 3.64663,-0.31523 5.30985,-0.89836 l -4.90698,-12.72155 -5.49581,12.79421 z"
     id="path6"
     style="fill:#eaeaea;fill-opacity:1;stroke-width:0.08145446"
     inkscape:connector-curvature="0" />
  <path
     d="m 6.8318527,18.427353 c -0.42454,1.44044 -0.65644,2.96519 -0.65644,4.5441 0,6.02389 3.31634,11.27273 8.2182703,14.02279 L 6.8810527,18.528273 Z"
     id="path8"
     style="fill:#eaeaea;fill-opacity:1;stroke-width:0.08145446"
     inkscape:connector-curvature="0" />
  <path
     d="m 15.021773,17.390603 -0.69057,-0.0309 c -1.50642,-0.025 -1.3396,1.53892 -1.3396,1.53892 l 5.34488,13.40553 3.59328,-8.58286 -2.00598,-5.10719 c -0.80322,-1.35035 -2.76334,-1.33618 -2.76334,-1.33618 v -0.71142 h 11.2386 l -0.0167,0.78904 -1.16936,0.0726 c -1.45632,0 -1.16187,1.38538 -1.16187,1.38538 l 4.87693,13.02774 1.39792,-3.60745 c 2.47972,-5.62174 0.95,-9.78219 0.95,-9.78219 -2.48314,-5.10883 0.65473,-5.842 0.65473,-5.842 0.19851,-0.0283 0.38455,-0.0442 0.56717,-0.0525 -2.94857,-3.4648301 -7.34084,-5.6626301 -12.24448,-5.6626301 -6.63023,0 -12.3253603,4.0178201 -14.7818703,9.7505901 l 7.5235503,-0.0775 0.0266,0.82326 z"
     id="path10"
     style="fill:#eaeaea;fill-opacity:1;stroke-width:0.08145446"
     inkscape:connector-curvature="0" />
  <path
     d="m 40.309803,22.918183 c 0,9.96237 -8.10651,18.06978 -18.06644,18.06978 -9.96497,0 -18.0714803,-8.10741 -18.0714803,-18.06978 0,-9.96497 8.1065103,-18.0689601 18.0714803,-18.0689601 9.95993,8.1e-4 18.06644,8.1040701 18.06644,18.0689601 z M 22.243363,4.0167629 c -10.4212,0 -18.9013403,8.4802201 -18.9013403,18.9022401 0,10.42201 8.4802203,18.898 18.9013403,18.898 10.41949,0 18.89394,-8.47607 18.89394,-18.898 0,-10.42202 -8.47436,-18.9022401 -18.89394,-18.9022401 z"
     id="path12"
     style="fill:#eaeaea;fill-opacity:1;stroke-width:0.08145446"
     inkscape:connector-curvature="0" />
</svg>
